<?xml version="1.0" standalone="yes"?>
<svg width="192" height="192">
<path style="fill:#ffffff; stroke:none;" d="M0 0L0 192L192 192L192 0L0 0z"/>
<path style="fill:#6c6c6c; stroke:none;" d="M89 52L89 53L101 53L89 52z"/>
<path style="fill:#6f6f6f; stroke:none;" d="M85 53L88 55L85 53z"/>
<path style="fill:#212121; stroke:none;" d="M87 53L87 54L92 54L87 53z"/>
<path style="fill:#222222; stroke:none;" d="M99 53L99 54L108 55L99 53z"/>
<path style="fill:#2b2b2b; stroke:none;" d="M81 55L81 56L86 55L81 55z"/>
<path style="fill:#ffffff; stroke:none;" d="M88 54.4645C34.791 64.058 50.0693 146.911 103 137.384C157.378 127.597 142.111 44.7084 88 54.4645z"/>
<path style="fill:#a6a6a6; stroke:none;" d="M102.667 54.3333L103.333 54.6667L102.667 54.3333z"/>
<path style="fill:#6a6a6a; stroke:none;" d="M107 56L110 54L107 56z"/>
<path style="fill:#606060; stroke:none;" d="M80.3333 55.6667L80.6667 56.3333L80.3333 55.6667z"/>
<path style="fill:#414141; stroke:none;" d="M109 55L109 56C122.749 62.5162 132.012 71.3522 137 86C141.504 72.9827 119.77 56.9197 109 55z"/>
<path style="fill:#888888; stroke:none;" d="M77 56L78 57L77 56z"/>
<path style="fill:#2f2f2f; stroke:none;" d="M76 57L76 58L80 57L76 57z"/>
<path style="fill:#888888; stroke:none;" d="M114 56L115 57L114 56M75 57L76 58L75 57z"/>
<path style="fill:#898989; stroke:none;" d="M116 57L117 58L116 57z"/>
<path style="fill:#a6a6a6; stroke:none;" d="M73 58L74 59L73 58z"/>
<path style="fill:#434343; stroke:none;" d="M58 76L59 76L76 59C68.2554 57.8775 60.0634 69.5381 58 76z"/>
<path style="fill:#858585; stroke:none;" d="M76 58L77 59L76 58z"/>
<path style="fill:#a3a3a3; stroke:none;" d="M70 60L71 61L70 60z"/>
<path style="fill:#a4a4a4; stroke:none;" d="M121 60L122 61L121 60z"/>
<path style="fill:#a1a1a1; stroke:none;" d="M60 70L61 71L60 70M131 70L132 71L131 70z"/>
<path style="fill:#949494; stroke:none;" d="M80 71L83 74L80 71z"/>
<path style="fill:#c5c5c5; stroke:none;" d="M122 71L123 74L124 74L124 71L122 71z"/>
<path style="fill:#161616; stroke:none;" d="M76 79L77 79L81 73C76.9856 72.156 76.2591 75.5985 76 79z"/>
<path style="fill:#494949; stroke:none;" d="M83.3333 72.6667L83.6667 73.3333L83.3333 72.6667z"/>
<path style="fill:#1b1b1b; stroke:none;" d="M122.333 72.6667L122.667 73.3333L122.333 72.6667z"/>
<path style="fill:#a2a2a2; stroke:none;" d="M58 73L59 74L58 73z"/>
<path style="fill:#939393; stroke:none;" d="M121 73L122 74L121 73z"/>
<path style="fill:#a2a2a2; stroke:none;" d="M133 73L134 74L133 73z"/>
<path style="fill:#444444; stroke:none;" d="M82 74L82 77L83 77L82 74z"/>
<path style="fill:#515151; stroke:none;" d="M121.667 74.3333L122.333 74.6667L121.667 74.3333z"/>
<path style="fill:#888888; stroke:none;" d="M57 75L58 76L57 75z"/>
<path style="fill:#ababab; stroke:none;" d="M77 75L77 79L78 79L77 75z"/>
<path style="fill:#c9c9c9; stroke:none;" d="M81.3333 75.6667L81.6667 76.3333L81.3333 75.6667z"/>
<path style="fill:#676767; stroke:none;" d="M120.333 75.6667L120.667 76.3333L120.333 75.6667z"/>
<path style="fill:#1c1c1c; stroke:none;" d="M121.333 75.6667L121.667 76.3333L121.333 75.6667z"/>
<path style="fill:#1f1f1f; stroke:none;" d="M57 76L56 80L57 80L57 76z"/>
<path style="fill:#868686; stroke:none;" d="M58 76L59 77L58 76z"/>
<path style="fill:#898989; stroke:none;" d="M75 76L75 79L76 79L75 76M56 77L57 78L56 77z"/>
<path style="fill:#060606; stroke:none;" d="M120 77L120 81L121 81L120 77z"/>
<path style="fill:#8b8b8b; stroke:none;" d="M121.333 77.6667L121.667 78.3333L121.333 77.6667z"/>
<path style="fill:#898989; stroke:none;" d="M135 77L136 78L135 77z"/>
<path style="fill:#616161; stroke:none;" d="M86 78L86 80L88 80L88 78L86 78z"/>
<path style="fill:#707070; stroke:none;" d="M90 78L89 81L90 78z"/>
<path style="fill:#323232; stroke:none;" d="M91 78L91 87L92 87L93 78L91 78z"/>
<path style="fill:#767676; stroke:none;" d="M104 80L107 82C107.598 79.4142 106.022 77.8579 104 80z"/>
<path style="fill:#5f5f5f; stroke:none;" d="M112 79L112 80L115 79L116 82C116.716 78.846 114.744 78.5694 112 79z"/>
<path style="fill:#a6a6a6; stroke:none;" d="M55 79L56 80L55 79z"/>
<path style="fill:#7c7c7c; stroke:none;" d="M76 79L77 80L76 79z"/>
<path style="fill:#141414; stroke:none;" d="M77 79L78 80L77 79z"/>
<path style="fill:#6f6f6f; stroke:none;" d="M95.3333 79.6667L95.6667 80.3333L95.3333 79.6667z"/>
<path style="fill:#1a1a1a; stroke:none;" d="M96 79L98 91L98 79L96 79z"/>
<path style="fill:#414141; stroke:none;" d="M103 79L104 80L103 79z"/>
<path style="fill:#a4a4a4; stroke:none;" d="M111 79L112 80L111 79z"/>
<path style="fill:#5e5e5e; stroke:none;" d="M119.333 79.6667L119.667 80.3333L119.333 79.6667z"/>
<path style="fill:#a7a7a7; stroke:none;" d="M136 79L137 80L136 79z"/>
<path style="fill:#505050; stroke:none;" d="M55 80L54 88L55 88L57 80L55 80z"/>
<path style="fill:#7f7f7f; stroke:none;" d="M77 80L78 81L77 80z"/>
<path style="fill:#262626; stroke:none;" d="M78 80L79 81L78 80z"/>
<path style="fill:#a4a4a4; stroke:none;" d="M79 80L80 81L79 80z"/>
<path style="fill:#9b9b9b; stroke:none;" d="M85.3333 80.6667L85.6667 81.3333L85.3333 80.6667z"/>
<path style="fill:#141414; stroke:none;" d="M86 80L86 83L87 83L86 80z"/>
<path style="fill:#cdcdcd; stroke:none;" d="M87 80L87 83L88 83L89 80L87 80z"/>
<path style="fill:#181818; stroke:none;" d="M102 80L100 88L101 88L102 80z"/>
<path style="fill:#9b9b9b; stroke:none;" d="M103 80L104 81L103 80z"/>
<path style="fill:#101010; stroke:none;" d="M111 80C109.002 83.7482 108.047 87.4368 112 90L111 80z"/>
<path style="fill:#9e9e9e; stroke:none;" d="M78 81L79 82L78 81z"/>
<path style="fill:#212121; stroke:none;" d="M79 81L80 82L79 81z"/>
<path style="fill:#8f8f8f; stroke:none;" d="M80 81L81 82L80 81z"/>
<path style="fill:#6f6f6f; stroke:none;" d="M88.3333 81.6667L88.6667 82.3333L88.3333 81.6667z"/>
<path style="fill:#9d9d9d; stroke:none;" d="M92 81L92 86L93 86L94 83L95 83L95 89L96 89L96 81L92 81z"/>
<path style="fill:#737373; stroke:none;" d="M94 81L95 82L94 81z"/>
<path style="fill:#2a2a2a; stroke:none;" d="M106 81L105 84L106 81z"/>
<path style="fill:#393939; stroke:none;" d="M115 81L114 84L115 81z"/>
<path style="fill:#2c2c2c; stroke:none;" d="M119 81L119 91L120 91L119 81z"/>
<path style="fill:#7e7e7e; stroke:none;" d="M120.333 81.6667L120.667 82.3333L120.333 81.6667z"/>
<path style="fill:#989898; stroke:none;" d="M79 82L80 83L79 82z"/>
<path style="fill:#4f4f4f; stroke:none;" d="M80 82L80 84L82 82L80 82z"/>
<path style="fill:#5a5a5a; stroke:none;" d="M85 82L88 85L85 82z"/>
<path style="fill:#b0b0b0; stroke:none;" d="M97 82L97 85L98 85L97 82z"/>
<path style="fill:#070707; stroke:none;" d="M81 83L80 90L81 90L81 83z"/>
<path style="fill:#767676; stroke:none;" d="M90 83L92 88L90 83M104 83L103 85L105 85L104 83z"/>
<path style="fill:#7a7a7a; stroke:none;" d="M113 83L112 85L114 85L113 83z"/>
<path style="fill:#8f8f8f; stroke:none;" d="M118 83L118 90L119 90L118 83z"/>
<path style="fill:#c4c4c4; stroke:none;" d="M80 84L80 88L81 88L80 84z"/>
<path style="fill:#737373; stroke:none;" d="M82 84L82 88L83 88L82 84z"/>
<path style="fill:#2f2f2f; stroke:none;" d="M85 84L85 89L86 89L85 84z"/>
<path style="fill:#cecece; stroke:none;" d="M108 84L108 88L109 88L108 84z"/>
<path style="fill:#7d7d7d; stroke:none;" d="M110 84L110 88L111 88L110 84z"/>
<path style="fill:#3e3e3e; stroke:none;" d="M73 86L73 87L77 86L73 86z"/>
<path style="fill:#6c6c6c; stroke:none;" d="M101 85L101 88L102 88L101 85z"/>
<path style="fill:#6d6d6d; stroke:none;" d="M138 85L137 88L138 85z"/>
<path style="fill:#686868; stroke:none;" d="M72 86L72 89L74 88L74 87L72 86z"/>
<path style="fill:#212121; stroke:none;" d="M53 87L53 92L54 92L53 87z"/>
<path style="fill:#9e9e9e; stroke:none;" d="M71 87L72 88L71 87z"/>
<path style="fill:#c7ccc8; stroke:none;" d="M86.3333 87.6667L86.6667 88.3333L86.3333 87.6667z"/>
<path style="fill:#9f9f9f; stroke:none;" d="M105 87L105 89L107 87L105 87z"/>
<path style="fill:#a5a5a5; stroke:none;" d="M114 87L114 89L116 87L114 87z"/>
<path style="fill:#212121; stroke:none;" d="M138 87L138 92L139 92L138 87z"/>
<path style="fill:#1b1b1b; stroke:none;" d="M71 88L71 91L72 91L71 88z"/>
<path style="fill:#888888; stroke:none;" d="M100 88L101 89L100 88z"/>
<path style="fill:#151515; stroke:none;" d="M101 88L102 89L101 88z"/>
<path style="fill:#949a9a; stroke:none;" d="M81 89L82 90L81 89z"/>
<path style="fill:#4a4a4a; stroke:none;" d="M101 89L101 90L105 90L101 89z"/>
<path style="fill:#7a7a7a; stroke:none;" d="M112.667 89.3333L113.333 89.6667L112.667 89.3333z"/>
<path style="fill:#6f6f6f; stroke:none;" d="M52 90L52 102L53 102L52 90z"/>
<path style="fill:#9a9a9a; stroke:none;" d="M77 93L81 91L77 93z"/>
<path style="fill:#c6cac9; stroke:none;" d="M122.667 90.3333L123.333 90.6667L122.667 90.3333z"/>
<path style="fill:#6f6f6f; stroke:none;" d="M139 90L139 102L140 102L139 90z"/>
<path style="fill:#727272; stroke:none;" d="M71 91L71 92L77 93L77 92L71 91z"/>
<path style="fill:#8d8789; stroke:none;" d="M119 91L119 92L123 92L119 91z"/>
<path style="fill:#9ed8e3; stroke:none;" d="M84 95L84 96L83 102C86.7071 100.126 89.0356 96.6943 84 95z"/>
<path style="fill:#7fc3cc; stroke:none;" d="M77 96C76.0477 99.5945 76.3326 101.382 79 104L79 96L77 96z"/>
<path style="fill:#49bec5; stroke:none;" d="M82 96C79.4319 100.17 75.4864 108.055 80 112C78.8474 106.009 81.3166 101.251 84 96L82 96z"/>
<path style="fill:#53c1c2; stroke:none;" d="M120 96C116.947 100.961 112.278 113.437 120 116L120 115L120 96z"/>
<path style="fill:#242424; stroke:none;" d="M53 99L53 104L54 104L53 99M138 99L138 104L139 104L138 99z"/>
<path style="fill:#5eb7bd; stroke:none;" d="M88 100L80 119L80 120C86.4747 117.548 89.9622 106.399 88 100z"/>
<path style="fill:#4dbbb0; stroke:none;" d="M96 100L98 103L96 100z"/>
<path style="fill:#96d0d1; stroke:none;" d="M105 100L104 113L105 113C107.222 108.761 109.644 103.285 105 100z"/>
<path style="fill:#a3e2d7; stroke:none;" d="M111 105L116 105L117 105L116 101L111 105z"/>
<path style="fill:#a0a0a0; stroke:none;" d="M54.3333 102.667L54.6667 103.333L54.3333 102.667z"/>
<path style="fill:#57bcb8; stroke:none;" d="M93 102L91 113L95 113L95 112C91.7813 108.631 93.1836 105.922 95 102L93 102z"/>
<path style="fill:#58bac5; stroke:none;" d="M104 113L104 112C101.436 108.456 103.178 105.63 105 102C100.363 104.434 97.7738 110.933 104 113z"/>
<path style="fill:#fefefe; stroke:none;" d="M105 102L102 112C105.808 109.775 106.681 106.044 105 102z"/>
<path style="fill:#a0a0a0; stroke:none;" d="M137.333 102.667L137.667 103.333L137.333 102.667z"/>
<path style="fill:#95e2da; stroke:none;" d="M97 103L95 112L96 112L100 104L97 103z"/>
<path style="fill:#fffaff; stroke:none;" d="M111 111L116 103C112.422 104.877 111.443 107.032 111 111z"/>
<path style="fill:#6c6c6c; stroke:none;" d="M53 104L53 106L55 106L55 104L53 104z"/>
<path style="fill:#686868; stroke:none;" d="M137 104L137 110L138 110L139 104L137 104z"/>
<path style="fill:#9ad3dc; stroke:none;" d="M77 105L77 111L78 111L77 105z"/>
<path style="fill:#43b5b6; stroke:none;" d="M110 105L112 113L112 105L110 105z"/>
<path style="fill:#222222; stroke:none;" d="M54.3333 106.667L54.6667 107.333L54.3333 106.667z"/>
<path style="fill:#b8dde5; stroke:none;" d="M79 106L79 111L80 111L79 106z"/>
<path style="fill:#9ed8e3; stroke:none;" d="M115 106L111 112C114.235 111.346 115.77 109.326 115 106z"/>
<path style="fill:#686868; stroke:none;" d="M55 107L54 110L55 107z"/>
<path style="fill:#bde1df; stroke:none;" d="M84 107L79 112L79 113L86 107L84 107z"/>
<path style="fill:#a2dcde; stroke:none;" d="M90 107L90 111L91 111L90 107z"/>
<path style="fill:#97d1d2; stroke:none;" d="M109 107L109 112L110 112L109 107z"/>
<path style="fill:#404040; stroke:none;" d="M55 109C57.5105 123.084 71.6976 136.537 86 138L86 137C69.6066 131.418 65.5441 120.677 55 109z"/>
<path style="fill:#363636; stroke:none;" d="M136 109L122 130C128.347 127.038 138.137 116.709 136 109z"/>
<path style="fill:#4dbec2; stroke:none;" d="M74 112C72.8935 115.885 72.847 118.621 77 120L77 119L76 112L74 112z"/>
<path style="fill:#898989; stroke:none;" d="M56 114L57 115L56 114M135 114L136 115L135 114z"/>
<path style="fill:#868686; stroke:none;" d="M133 115L134 116L133 115z"/>
<path style="fill:#888888; stroke:none;" d="M57 116L58 117L57 116z"/>
<path style="fill:#a3a3a3; stroke:none;" d="M58 118L59 119L58 118z"/>
<path style="fill:#a2a2a2; stroke:none;" d="M133 118L134 119L133 118z"/>
<path style="fill:#a1a1a1; stroke:none;" d="M60 121L61 122L60 121M131 121L132 122L131 121z"/>
<path style="fill:#6c6c6c; stroke:none;" d="M119 133L123 131L119 133z"/>
<path style="fill:#a5a5a5; stroke:none;" d="M70 131L71 132L70 131z"/>
<path style="fill:#4a4a4a; stroke:none;" d="M104 139L119 132L104 139z"/>
<path style="fill:#a7a7a7; stroke:none;" d="M73 133L74 134L73 133z"/>
<path style="fill:#858585; stroke:none;" d="M115 133L116 134L115 133z"/>
<path style="fill:#888888; stroke:none;" d="M77 135L78 136L77 135M114 135L115 136L114 135z"/>
<path style="fill:#787878; stroke:none;" d="M85 139L88 137L85 139z"/>
<path style="fill:#a2a2a2; stroke:none;" d="M102.667 137.333L103.333 137.667L102.667 137.333z"/>
<path style="fill:#232323; stroke:none;" d="M87 138L87 139L92 139L87 138z"/>
<path style="fill:#6c6c6c; stroke:none;" d="M89 139L89 140L101 140L89 139z"/>
<path style="fill:#232323; stroke:none;" d="M99 138L99 139L104 139L99 138z"/>
</svg>
